<?xml version="1.0" encoding="UTF-8" standalone="no"?>
<!-- Created with Inkscape (http://www.inkscape.org/) -->

<svg
   xmlns:dc="http://purl.org/dc/elements/1.1/"
   xmlns:cc="http://creativecommons.org/ns#"
   xmlns:rdf="http://www.w3.org/1999/02/22-rdf-syntax-ns#"
   xmlns:svg="http://www.w3.org/2000/svg"
   xmlns="http://www.w3.org/2000/svg"
   xmlns:xlink="http://www.w3.org/1999/xlink"
   xmlns:sodipodi="http://sodipodi.sourceforge.net/DTD/sodipodi-0.dtd"
   xmlns:inkscape="http://www.inkscape.org/namespaces/inkscape"
   width="882"
   height="180"
   viewBox="0 0 233.36249 47.624996"
   version="1.1"
   id="svg8"
   inkscape:version="0.92.4 (5da689c313, 2019-01-14)"
   sodipodi:docname="banner.svg">
  <defs
     id="defs2">
    <linearGradient
       inkscape:collect="always"
       id="linearGradient978">
      <stop
         style="stop-color:#bedadb;stop-opacity:1"
         offset="0"
         id="stop974" />
      <stop
         style="stop-color:#00647e;stop-opacity:1"
         offset="1"
         id="stop976" />
    </linearGradient>
    <linearGradient
       inkscape:collect="always"
       xlink:href="#linearGradient978"
       id="linearGradient980"
       x1="83.142815"
       y1="-1.0572392"
       x2="82.657547"
       y2="28.705948"
       gradientUnits="userSpaceOnUse"
       gradientTransform="matrix(1.4584825,0,0,1.5876845,-0.10954837,-17.505612)" />
  </defs>
  <sodipodi:namedview
     id="base"
     pagecolor="#ffffff"
     bordercolor="#666666"
     borderopacity="1.0"
     inkscape:pageopacity="0.0"
     inkscape:pageshadow="2"
     inkscape:zoom="1.1566071"
     inkscape:cx="419.80441"
     inkscape:cy="11.708069"
     inkscape:document-units="mm"
     inkscape:current-layer="layer5"
     showgrid="false"
     showguides="true"
     inkscape:guide-bbox="true"
     inkscape:window-width="1920"
     inkscape:window-height="1080"
     inkscape:window-x="0"
     inkscape:window-y="0"
     inkscape:window-maximized="0"
     units="px" />
  <metadata
     id="metadata5">
    <rdf:RDF>
      <cc:Work
         rdf:about="">
        <dc:format>image/svg+xml</dc:format>
        <dc:type
           rdf:resource="http://purl.org/dc/dcmitype/StillImage" />
        <dc:title></dc:title>
      </cc:Work>
    </rdf:RDF>
  </metadata>
  <g
     inkscape:groupmode="layer"
     id="layer5"
     inkscape:label="bg"
     transform="translate(0,17.624998)">
    <rect
       style="display:inline;opacity:1;fill:url(#linearGradient980);fill-opacity:1;stroke:#0e9cab;stroke-width:0.12756698;stroke-miterlimit:4;stroke-dasharray:none;stroke-opacity:1"
       id="rect946"
       width="233.23494"
       height="47.497433"
       x="0.063783489"
       y="-17.561213" />
  </g>
  <g
     inkscape:groupmode="layer"
     id="layer4"
     inkscape:label="text"
     transform="translate(0,17.624998)">
    <g
       id="g1045"
       transform="matrix(1.4640388,0,0,1.4640388,3.9716875,-14.595916)">
      <path
         transform="scale(0.26458333)"
         id="flowRoot927"
         d="m 343.17578,18.757812 c -1.76154,0 -3.43241,0.297171 -5.01172,0.890626 -1.57931,0.539504 -2.97655,1.322597 -4.1914,2.347656 -1.15412,1.025058 -2.09531,2.211786 -2.82422,3.560547 -0.72892,1.348761 -1.15391,2.804577 -1.27539,4.36914 h -0.0918 v 10.763672 h -6.46875 v 6.796875 h 6.46875 v 33.908203 h 8.74609 V 47.486328 h 6.47071 v -6.796875 h -6.47071 v -9.955078 h 0.0918 v -0.566406 c 0,-1.13296 0.45605,-2.102853 1.36719,-2.91211 0.91114,-0.863207 2.0037,-1.294922 3.27929,-1.294921 0.30372,0 0.57735,0.02613 0.82032,0.08008 0.30371,0.05395 0.60839,0.136239 0.91211,0.24414 v -7.365234 c -0.30372,-0.05395 -0.6084,-0.08008 -0.91211,-0.08008 -0.30372,-0.05395 -0.60644,-0.08203 -0.91016,-0.08203 z m 62.48242,0.08203 v 62.554687 h 2.18555 6.56055 0.0918 V 74.677734 73.544922 51.613281 c 0,-0.593455 0.24258,-1.159714 0.72852,-1.699219 0.48594,-0.539504 1.06425,-0.997346 1.73242,-1.375 0.72891,-0.431603 1.48769,-0.754901 2.27735,-0.970703 0.85039,-0.215801 1.60917,-0.324218 2.27734,-0.324218 0.66817,0 1.33573,0.108417 2.0039,0.324218 0.72892,0.215802 1.36738,0.5391 1.91407,0.970703 0.60743,0.377654 1.09257,0.835496 1.45703,1.375 0.36446,0.539505 0.54687,1.105764 0.54687,1.699219 v 19.503907 3.560546 6.716797 h 0.1836 8.83789 V 74.677734 73.544922 52.099609 c 0,-1.564562 -0.24258,-2.913915 -0.72852,-4.046875 -0.4252,-1.186909 -0.9123,-2.211011 -1.45898,-3.074218 -0.66817,-0.971108 -1.39785,-1.834538 -2.1875,-2.589844 -1.21486,-1.025059 -2.6412,-1.808152 -4.28125,-2.347656 -1.57931,-0.593455 -3.27928,-0.888672 -5.10156,-0.888672 -1.45783,0 -2.91718,0.188753 -4.375,0.566406 -1.39709,0.377653 -2.70312,0.915832 -3.91797,1.617188 V 18.839844 Z m -21.78906,18.935547 c -1.76154,0 -3.40135,0.29717 -4.91992,0.890625 -1.51857,0.539504 -2.8246,1.268389 -3.91797,2.185546 -1.09337,0.917158 -1.97441,1.94126 -2.64258,3.074219 -0.60743,1.079009 -0.91211,2.15732 -0.91211,3.236328 0,1.456662 0.30468,2.860224 0.91211,4.208985 0.60743,1.348761 1.48847,2.670033 2.64258,3.964844 l 10.66016,12.787109 c 0.48594,0.485554 0.94198,1.106022 1.36718,1.861328 0.48595,0.701356 0.72852,1.293743 0.72852,1.779297 0,0.593455 -0.33378,1.242004 -1.00195,1.943359 -0.66817,0.701356 -1.61132,1.050781 -2.82618,1.050781 -0.91114,0 -1.66991,-0.160672 -2.27734,-0.484374 -0.54668,-0.377654 -1.00273,-0.837449 -1.36719,-1.376954 -0.30371,-0.539504 -0.51523,-1.131891 -0.63672,-1.779296 -0.12148,-0.647406 -0.18164,-1.267874 -0.18164,-1.861329 v -1.132812 h -8.01953 c 0,2.319869 0.30468,4.315817 0.91211,5.988281 0.66817,1.672464 1.54921,3.076025 2.64258,4.208984 1.15411,1.079009 2.48924,1.88823 4.00781,2.427735 1.51857,0.485554 3.15838,0.726562 4.91992,0.726562 1.76155,0 3.40331,-0.295217 4.92188,-0.888671 1.51857,-0.593455 2.8246,-1.32234 3.91797,-2.185547 1.09337,-0.917158 1.94335,-1.915132 2.55078,-2.994141 0.66817,-1.132959 1.00195,-2.239351 1.00195,-3.318359 0,-0.701356 -0.0912,-1.347952 -0.27344,-1.941407 -0.18222,-0.593454 -0.45585,-1.187795 -0.82031,-1.78125 -0.30371,-0.647405 -0.7287,-1.322081 -1.27539,-2.023437 -0.48594,-0.755306 -1.0623,-1.590655 -1.73047,-2.507813 L 382.13672,51.128906 c -0.48594,-0.539504 -0.97109,-1.159972 -1.45703,-1.861328 -0.4252,-0.755306 -0.63672,-1.349646 -0.63672,-1.78125 0,-0.647405 0.33378,-1.294001 1.00195,-1.941406 0.66817,-0.701356 1.60936,-1.052734 2.82422,-1.052734 0.91114,0 1.63886,0.188753 2.18555,0.566406 0.60743,0.323702 1.06347,0.755417 1.36719,1.294922 0.36445,0.485554 0.60703,1.051813 0.72851,1.699218 0.12149,0.647406 0.18359,1.267874 0.18359,1.861328 v 1.214844 h 8.01758 c 0,-2.319869 -0.33378,-4.315817 -1.00195,-5.988281 -0.60743,-1.672464 -1.48847,-3.047944 -2.64258,-4.126953 -1.09337,-1.079009 -2.3994,-1.890183 -3.91797,-2.429688 -1.51857,-0.539504 -3.15838,-0.808593 -4.91992,-0.808593 z m -222.16602,0.648437 c -1.76154,0 -3.43045,0.295217 -5.00976,0.888672 -1.57931,0.539504 -2.94745,1.322598 -4.10156,2.347656 -1.15412,0.971108 -2.09531,2.131708 -2.82422,3.480469 -0.66817,1.294811 -1.03301,2.696419 -1.09375,4.207031 v 2.751953 3.884766 6.796875 6.150391 1.699218 c 0,1.510613 0.33573,2.940302 1.0039,4.289063 0.72892,1.348761 1.67011,2.535488 2.82422,3.560547 1.21486,0.971108 2.6121,1.754201 4.19141,2.347656 1.57931,0.539504 3.24822,0.808594 5.00976,0.808594 2.24749,0 4.43455,-0.431715 6.56055,-1.294922 v 1.052734 h 8.65625 V 38.746094 h -8.65625 v 1.052734 c -2.06525,-0.917157 -4.25232,-1.375 -6.56055,-1.375 z m 113.35938,0 c -1.76154,0 -3.43241,0.295217 -5.01172,0.888672 -1.57931,0.539504 -2.9455,1.322598 -4.09961,2.347656 -1.15411,0.971108 -2.0953,2.131708 -2.82422,3.480469 -0.66817,1.294811 -1.033,2.696419 -1.09375,4.207031 v 2.751953 3.884766 6.796875 6.150391 1.699218 c 0,1.510613 0.33379,2.940302 1.00196,4.289063 0.72891,1.348761 1.6701,2.535488 2.82422,3.560547 1.21485,0.971108 2.61209,1.754201 4.1914,2.347656 1.57931,0.539504 3.25018,0.808594 5.01172,0.808594 2.24748,0 4.43455,-0.431715 6.56055,-1.294922 v 1.052734 h 8.65625 V 38.746094 h -8.65625 v 1.052734 c -2.06526,-0.917157 -4.25232,-1.375 -6.56055,-1.375 z m -75.44922,0.160156 c -1.76154,0 -3.40135,0.271043 -4.91992,0.810547 -1.51857,0.539505 -2.85565,1.294517 -4.00977,2.265625 -1.15411,0.971108 -2.06425,2.103627 -2.73242,3.398438 -0.66817,1.29481 -1.03301,2.670291 -1.09375,4.126953 v 2.751953 3.722656 6.716797 5.988281 1.619141 c 0,1.510612 0.33378,2.912221 1.00196,4.207031 0.72891,1.294811 1.641,2.429283 2.73437,3.400391 1.15411,0.971108 2.48924,1.752248 4.00781,2.345703 1.57931,0.539504 3.25018,0.810547 5.01172,0.810547 2.30823,0 4.40408,-0.431715 6.28711,-1.294922 v 20.3125 h 8.56445 v -60.85742 h -8.56445 v 0.970703 c -2.06525,-0.863207 -4.16111,-1.294922 -6.28711,-1.294922 z m 25.32227,0.16211 v 6.798828 3.560547 20.070312 c 0,1.726414 0.36483,3.344857 1.09375,4.855469 0.72891,1.456662 1.70116,2.749853 2.91601,3.882812 1.2756,1.079009 2.73299,1.942439 4.37305,2.589844 1.7008,0.647406 3.52303,0.970703 5.4668,0.970703 1.88302,0 3.6742,-0.323297 5.375,-0.970703 1.70079,-0.647405 3.18924,-1.510835 4.46484,-2.589844 1.2756,-1.132959 2.2789,-2.42615 3.00781,-3.882812 0.72892,-1.510612 1.09375,-3.129055 1.09375,-4.855469 V 46.677734 45.544922 38.746094 h -8.92968 v 6.798828 1.132812 22.173828 c 0,1.240861 -0.4871,2.293043 -1.45899,3.15625 -0.91114,0.809257 -2.06385,1.212891 -3.46094,1.212891 -1.33634,0 -2.491,-0.403634 -3.46289,-1.212891 -0.91114,-0.863207 -1.36718,-1.915389 -1.36718,-3.15625 V 49.105469 45.544922 38.746094 Z m 128.11718,0 -0.18359,42.728515 h 8.83984 l 0.18164,-42.728515 z m -191.34961,6.474609 c 0.60743,0 1.2459,0.108417 1.91407,0.324219 0.66817,0.161851 1.27558,0.430941 1.82226,0.808594 0.54669,0.323702 1.00273,0.729289 1.36719,1.214843 0.36446,0.485554 0.54688,0.997605 0.54688,1.53711 v 21.203125 c 0,0.539504 -0.18242,1.051555 -0.54688,1.537109 -0.36446,0.485554 -0.8205,0.917269 -1.36719,1.294922 -0.54668,0.323703 -1.15409,0.592792 -1.82226,0.808594 -0.66817,0.215802 -1.30664,0.324219 -1.91407,0.324219 -1.27559,0 -2.36815,-0.377507 -3.27929,-1.132813 -0.91114,-0.809257 -1.36719,-1.753022 -1.36719,-2.832031 V 49.105469 c 0,-1.079009 0.45605,-1.996647 1.36719,-2.751953 0.91114,-0.755307 2.0037,-1.132813 3.27929,-1.132813 z m 113.35938,0 c 0.60743,0 1.24589,0.108417 1.91406,0.324219 0.66817,0.161851 1.27558,0.430941 1.82227,0.808594 0.54668,0.323702 1.00273,0.729289 1.36719,1.214843 0.36445,0.485554 0.54687,0.997605 0.54687,1.53711 v 21.203125 c 0,0.539504 -0.18242,1.051555 -0.54687,1.537109 -0.36446,0.485554 -0.82051,0.917269 -1.36719,1.294922 -0.54669,0.323703 -1.1541,0.592792 -1.82227,0.808594 -0.66817,0.215802 -1.30663,0.324219 -1.91406,0.324219 -1.2756,0 -2.36816,-0.377507 -3.2793,-1.132813 -0.91114,-0.809257 -1.36718,-1.753022 -1.36718,-2.832031 V 49.105469 c 0,-1.079009 0.45604,-1.996647 1.36718,-2.751953 0.91114,-0.755307 2.0037,-1.132813 3.2793,-1.132813 z m -75.54102,0.08203 c 0.60743,0 1.21484,0.106464 1.82227,0.322266 0.66817,0.161851 1.27558,0.432894 1.82227,0.810547 0.54668,0.323703 0.97167,0.727337 1.27539,1.212891 0.36445,0.431603 0.54687,0.917526 0.54687,1.457031 v 20.716797 c 0,0.539504 -0.18242,1.051555 -0.54687,1.537109 -0.30372,0.431604 -0.72871,0.837191 -1.27539,1.214844 -0.54669,0.323702 -1.1541,0.592792 -1.82227,0.808593 -0.60743,0.161852 -1.21484,0.242188 -1.82227,0.242188 -1.21485,0 -2.27635,-0.349426 -3.1875,-1.050781 -0.91114,-0.755306 -1.36718,-1.672945 -1.36718,-2.751953 V 49.105469 c 0,-1.079009 0.45604,-1.968566 1.36718,-2.669922 0.91115,-0.755306 1.97265,-1.132813 3.1875,-1.132813 z"
         style="font-style:normal;font-weight:normal;font-size:40px;line-height:1.25;font-family:sans-serif;letter-spacing:0px;word-spacing:0px;display:inline;fill:#000000;fill-opacity:0.5;stroke:none;stroke-width:2.14672351;stroke-opacity:1"
         inkscape:connector-curvature="0" />
      <g
         inkscape:transform-center-y="0.57639814"
         inkscape:transform-center-x="-1.4188316"
         transform="matrix(0.02432271,0.00530143,-0.00530143,0.02432271,92.364568,8.8293191)"
         id="g925"
         style="display:inline;opacity:0.56000001">
        <use
           x="0"
           y="0"
           xlink:href="#path879"
           id="use899"
           width="100%"
           height="100%" />
        <path
           style="fill:#855fa8;fill-opacity:1;stroke:#855fa8;stroke-width:0.26458332px;stroke-linecap:butt;stroke-linejoin:miter;stroke-opacity:1"
           d="m 16.127697,-100.22075 26.878979,18.586974 c 9.236261,-19.334304 24.180934,-28.722134 47.638954,-23.276104 -16.472916,19.219979 11.04218,42.945894 28.00862,17.442351 7.74225,3.268462 6.49261,10.596314 7.33444,16.15612 0.31652,5.533279 -3.04826,6.464931 -6.06217,7.83518 8.237,3.07871 6.29191,6.15742 6.34794,9.23613 C 116.70137,5.6899717 25.144443,-10.76225 38.974881,-69.22368 l -25.935884,15.326712 c 10.112411,-12.841573 14.871286,-26.029344 3.0887,-46.323782 z"
           id="path907"
           inkscape:connector-curvature="0"
           sodipodi:nodetypes="cccccccccc" />
        <ellipse
           style="opacity:1;fill:#662d91;fill-opacity:1;stroke:none;stroke-width:0.51399416;stroke-miterlimit:4;stroke-dasharray:none;stroke-opacity:1"
           id="path901"
           cx="99.084724"
           cy="-89.962547"
           rx="16.87826"
           ry="17.51141" />
        <path
           style="fill:#662d91;fill-opacity:1;stroke:none;stroke-width:0.26499999;stroke-linecap:butt;stroke-linejoin:miter;stroke-miterlimit:4;stroke-dasharray:none;stroke-opacity:1"
           d="m 70.857842,-42.687909 c -24.642062,3.999838 -33.64841,14.613552 9.207516,25.906863 36.981602,-3.543039 50.792712,-19.581371 15.784314,-26.135622 -12.234603,4.778041 -24.459272,9.610716 -36.544118,15.21242 3.940217,-4.860372 8.298814,-9.093174 11.552288,-14.983661 z"
           id="path879"
           inkscape:connector-curvature="0"
           sodipodi:nodetypes="ccccc" />
        <path
           style="opacity:1;fill:#ffffff;fill-opacity:1;stroke:none;stroke-width:1.01506186;stroke-miterlimit:4;stroke-dasharray:none;stroke-opacity:1"
           d="m 385.57227,-398.49219 a 55.666938,54.215333 0 0 0 -55.57618,54.27344 55.666938,54.215333 0 0 0 55.69727,54.1582 55.666938,54.215333 0 0 0 41.63086,-18.33203 49.214719,41.572683 0 0 0 7.88281,2.14258 l 12.69336,-25.89453 15.00391,24.6543 a 49.214719,41.572683 0 0 0 32.87695,-39.16211 49.214719,41.572683 0 0 0 -49.21484,-41.57227 49.214719,41.572683 0 0 0 -22.62891,4.66992 55.666938,54.215333 0 0 0 -38.36523,-14.9375 z"
           transform="scale(0.26458333)"
           id="path891"
           inkscape:connector-curvature="0" />
        <path
           inkscape:connector-curvature="0"
           style="fill:#000001;fill-opacity:1;stroke:none;stroke-width:0.99999994px;stroke-linecap:butt;stroke-linejoin:miter;stroke-opacity:1"
           d="m 9.09375,-427.74609 c 96.91528,104.52892 62.823712,176.09287 -3.1503906,266.02734 40.2943446,-13.78682 75.5859136,-41.33349 111.1328106,-68.17578 7.92944,213.477163 307.20544,257.666163 369.04297,40.18555 34.43282,26.64949 60.59114,-24.37651 27.64258,-48.72266 49.14962,-40.55985 -19.6517,-79.7622 -30.17383,-42.51172 -2.04896,-8.58803 -4.91912,-16.18352 -8.48242,-23.15625 52.83424,-34.94754 11.25224,-107.63243 -41.03711,-83.83203 -22.73669,-23.19364 -47.60621,-26.84675 -73.79688,-18.37891 -85.4865,-26.74291 -162.32504,8.00653 -212.93359,74.01367 C 104.57747,-366.22661 63.984,-401.53533 9.09375,-427.74609 Z m 305.72461,29.79492 c 8.74872,0.026 17.99524,0.49507 27.7793,1.4414 -86.00508,85.58102 66.30336,175.46466 105.85937,65.92383 12.89737,19.13509 21.73526,39.62345 27.7207,61.0625 -7.63729,16.31722 -15.27481,22.09634 -22.91211,29.61328 11.28322,9.00751 18.44721,21.31013 23.99219,34.90821 -37.84977,199.72307 -350.04019,179.841025 -329.95117,-56.63086 -34.95005,15.51692 -66.441469,36.8006 -98.02539,57.92773 29.660436,-41.07179 69.76695,-75.1376 11.673828,-175.08203 l 101.589842,70.25 c 29.54971,-48.65614 67.70248,-89.66571 152.27344,-89.41406 z m 71.00781,0.79297 a 54.469688,51.767793 0 0 1 54.47071,51.76758 54.469688,51.767793 0 0 1 -54.47071,51.76757 54.469688,51.767793 0 0 1 -54.46875,-51.76757 54.469688,51.767793 0 0 1 54.46875,-51.76758 z m 71.24219,14.58398 c 41.19911,0.4573 47.80187,57.74242 14.9043,70.91016 -5.96852,-12.146 -12.94407,-23.6623 -22.16211,-33.77735 0.75431,-12.66489 -3.32833,-23.90823 -9.47657,-34.54297 6.09403,-1.84488 11.67484,-2.646 16.73438,-2.58984 z"
           id="path827"
           transform="scale(0.26458333)" />
        <path
           style="opacity:1;fill:#000001;fill-opacity:1;stroke:none;stroke-width:1.13385832;stroke-miterlimit:4;stroke-dasharray:none;stroke-opacity:1"
           d="m 410.00781,-346.95312 a 17.084034,18.962341 0 0 0 -17.05664,18.98242 17.084034,18.962341 0 0 0 17.09375,18.9414 17.084034,18.962341 0 0 0 17.07422,-18.96289 v -0.041 a 17.084034,18.962341 0 0 0 -17.11133,-18.91992 z m -3.76562,6.25 a 5.3494258,6.3428906 0 0 1 5.35742,6.32812 v 0.0137 a 5.3494258,6.3428906 0 0 1 -5.3457,6.34375 5.3494258,6.3428906 0 0 1 -5.35352,-6.33594 5.3494258,6.3428906 0 0 1 5.3418,-6.3496 z"
           transform="scale(0.26458333)"
           id="path846"
           inkscape:connector-curvature="0" />
        <use
           x="0"
           y="0"
           xlink:href="#path846"
           id="use855"
           transform="matrix(0.65467717,0,0,0.59606309,54.771484,-37.257984)"
           width="100%"
           height="100%" />
        <path
           style="opacity:1;fill:#fff467;fill-opacity:1;stroke:none;stroke-width:0.30000001;stroke-miterlimit:4;stroke-dasharray:none;stroke-opacity:1"
           id="path861"
           sodipodi:type="arc"
           sodipodi:cx="52.975239"
           sodipodi:cy="-84.847084"
           sodipodi:rx="3.8012767"
           sodipodi:ry="3.3968854"
           sodipodi:start="0"
           sodipodi:end="6.2810211"
           sodipodi:open="true"
           d="m 56.776515,-84.847084 a 3.8012767,3.3968854 0 0 1 -3.79922,3.396885 3.8012767,3.3968854 0 0 1 -3.803331,-3.393209 3.8012767,3.3968854 0 0 1 3.795105,-3.400557 3.8012767,3.3968854 0 0 1 3.807438,3.389529" />
        <use
           x="0"
           y="0"
           xlink:href="#path861"
           id="use863"
           transform="matrix(0.51258051,0,0,0.55633426,20.503421,-32.267053)"
           width="100%"
           height="100%" />
        <use
           x="0"
           y="0"
           xlink:href="#use863"
           id="use865"
           transform="matrix(1.123937,0,0,0.92442048,4.6480796,-16.540723)"
           width="100%"
           height="100%" />
        <use
           x="0"
           y="0"
           xlink:href="#use865"
           id="use867"
           transform="matrix(1.3377564,0,0,1.6197575,-16.67184,61.982139)"
           width="100%"
           height="100%" />
        <path
           style="opacity:1;fill:#f7941e;fill-opacity:1;stroke:none;stroke-width:0.30000001;stroke-miterlimit:4;stroke-dasharray:none;stroke-opacity:1"
           id="path869"
           sodipodi:type="arc"
           sodipodi:cx="53.217873"
           sodipodi:cy="-79.468674"
           sodipodi:rx="3.0329335"
           sodipodi:ry="2.6689816"
           sodipodi:start="0"
           sodipodi:end="6.2810211"
           sodipodi:open="true"
           d="m 56.250806,-79.468674 a 3.0329335,2.6689816 0 0 1 -3.031292,2.668981 3.0329335,2.6689816 0 0 1 -3.034573,-2.666093 3.0329335,2.6689816 0 0 1 3.028009,-2.671866 3.0329335,2.6689816 0 0 1 3.037849,2.663202" />
        <path
           style="fill:#000005;fill-opacity:1;stroke:none;stroke-width:0.26458332px;stroke-linecap:butt;stroke-linejoin:miter;stroke-opacity:1"
           d="m 67.856832,-79.509119 c -3.794885,10.593629 -1.216379,28.45813 -25.079055,29.786897 10.637704,2.255138 21.03184,3.725448 30.310457,1.601306 -2.603496,8.575094 -8.602304,14.132134 -13.78268,20.416668 14.157023,-6.301163 28.354646,-12.318118 42.663396,-17.557189 l -5.947709,-2.173203 c -8.977239,5.598152 -18.540907,7.644241 -27.279412,12.352941 4.724903,-5.802391 8.618422,-11.680362 10.008171,-17.785948 -6.818858,3.392034 -14.483819,3.762273 -22.361112,3.374184 14.755659,-7.991243 13.977093,-19.732216 11.467944,-30.015656 z"
           id="path871"
           inkscape:connector-curvature="0"
           sodipodi:nodetypes="cccccccccc" />
      </g>
    </g>
  </g>
</svg>
